<svg width="30" height="31" viewBox="0 0 30 31" fill="none" xmlns="http://www.w3.org/2000/svg">
<rect width="30" height="31" fill="#1E1E1E"/>
<g clip-path="url(#clip0_0_1)">
<rect width="1440" height="6293" transform="translate(-141 -3063)" fill="#F4FFFE"/>
<rect x="-21.5" y="-19" width="69" height="69" rx="4.5" fill="#CCE9FA"/>
<rect x="-21.5" y="-19" width="69" height="69" rx="4.5" stroke="#283C63"/>
<path d="M16.1422 3.13707C16.1422 4.03707 16.1347 4.86055 16.1566 5.68331C16.1566 5.75108 16.3545 5.86914 16.4633 5.87205C17.1432 5.88954 17.8232 5.8808 18.5031 5.8808H18.9564V8.06703C18.9564 8.57716 18.9564 8.57716 19.4852 8.57716H21.732V11.2524H18.9655V13.932H16.1702V16.6582H13.3749V19.41H16.1505C16.1505 20.2152 16.1687 20.9658 16.143 21.7142C16.1309 22.048 16.2525 22.1253 16.5736 22.1172C17.3502 22.0976 18.1269 22.1114 18.9541 22.1114V24.3319C18.9541 24.8282 18.9541 24.8282 19.4603 24.8282H22.0999C22.1974 25.4017 22.2699 25.9636 22.3923 26.5152C22.619 27.5223 22.8607 28.5251 23.1145 29.5249C23.2853 30.1976 23.0602 30.5 22.3424 30.5H12.2235C11.6328 30.5 11.462 30.3411 11.3268 29.7807C11.0903 28.8028 10.8735 27.8131 10.566 26.8577C10.2124 25.7646 9.65944 25.4002 8.46351 25.4104C7.52218 25.4206 6.58236 25.5329 5.64103 25.5781C5.22818 25.6014 4.81403 25.5919 4.4028 25.5496C3.54231 25.4549 2.9893 24.9666 2.81025 24.165C2.65084 23.4567 2.59946 22.7257 2.49219 22.0065C2.42646 21.5627 2.36829 21.1159 2.26554 20.6802C2.08952 19.9288 1.68005 19.3196 1.00238 18.8911C0.81351 18.7716 0.624642 18.6513 0.447104 18.5143C-0.0673785 18.1135 -0.146707 17.5415 0.255209 17.0372C0.472906 16.7699 0.705428 16.5142 0.95176 16.2712C2.19679 15.0127 2.60097 13.5188 2.38717 11.8128C2.2119 10.4231 2.17111 9.03262 2.60626 7.65894C3.24691 5.64031 4.50253 4.06331 6.256 2.83974C8.23234 1.46096 10.4648 0.764275 12.8816 0.555125C14.8383 0.385328 16.7421 0.615611 18.6232 1.13812C18.8959 1.211 18.979 1.32978 18.9647 1.58921C18.9382 1.96482 18.9382 2.34171 18.9647 2.71731C18.9964 3.07076 18.8415 3.14582 18.5114 3.13853C17.7378 3.12541 16.971 3.13707 16.1422 3.13707ZM12.1548 22.7279C12.1548 23.6024 12.1472 24.4347 12.1691 25.2662C12.1691 25.3339 12.3709 25.452 12.4804 25.4542C13.2079 25.4709 13.9362 25.4542 14.6637 25.468C14.9387 25.4731 15.0037 25.3623 14.9969 25.1219C14.9833 24.6117 14.9931 24.1053 14.9931 23.5966V22.7279H12.1548ZM16.3303 9.59011V6.91124H13.5486V9.59011H16.3303ZM7.94449 5.87788V8.56404H10.7284V5.88007L7.94449 5.87788ZM14.2271 13.247V10.5608H11.462V13.247H14.2271Z" fill="#283C63"/>
<path d="M23.2007 4.97351H25.9204V7.60938H23.2007V4.97351Z" fill="#283C63"/>
<path d="M26.0821 13.4955H23.3691V10.8661H26.0821V13.4955Z" fill="#283C63"/>
<path d="M20.0171 16.057V13.4335H22.7496V16.057H20.0171Z" fill="#283C63"/>
<path d="M25.8524 17.0481V19.6861H23.1176V17.0481H25.8524Z" fill="#283C63"/>
<path d="M27.8136 24.9419H25.1045V22.3184H27.8136V24.9419Z" fill="#283C63"/>
<path d="M17.0171 16.7056H19.7368V19.3502H17.0171V16.7056Z" fill="#283C63"/>
<path d="M30 10.2657H27.2735V7.63416H30V10.2657Z" fill="#283C63"/>
<path d="M22.4444 3.02557C22.4444 3.88039 22.4497 4.69003 22.4339 5.49893C22.4339 5.57181 22.2873 5.69351 22.2072 5.69497C21.4412 5.71027 20.6751 5.71173 19.9098 5.69497C19.8267 5.69497 19.6794 5.54922 19.6771 5.46541C19.659 4.72719 19.6605 3.98752 19.6771 3.2493C19.6771 3.17642 19.8131 3.03869 19.8886 3.03723C20.7151 3.02047 21.5424 3.02557 22.4444 3.02557Z" fill="#283C63"/>
<path d="M20.3978 20.6138H23.1387V23.2708H21.9934C21.553 23.2708 21.1125 23.2825 20.6736 23.2614C20.5784 23.257 20.4114 23.136 20.4092 23.0661C20.3895 22.2572 20.3978 21.4475 20.3978 20.6138Z" fill="#283C63"/>
</g>
<defs>
<clipPath id="clip0_0_1">
<rect width="1440" height="6293" fill="white" transform="translate(-141 -3063)"/>
</clipPath>
</defs>
</svg>
